<svg width="47" height="49" viewBox="0 0 47 49" fill="none" xmlns="http://www.w3.org/2000/svg">
<path d="M2.03605 13.9436C0.902022 12.8151 0.268743 11.2926 0.274452 9.7079C0.280263 8.1233 0.924552 6.6052 2.06684 5.4847C3.20913 4.3642 4.75675 3.7322 6.37216 3.7266C7.98757 3.7209 9.53977 4.3421 10.6902 5.4546" fill="#14CF6A"/>
<path d="M35.8965 5.4546C37.0469 4.3421 38.599 3.7209 40.2145 3.7266C41.83 3.7322 43.3776 4.3642 44.5199 5.4847C45.6622 6.6052 46.3064 8.1233 46.3121 9.7079C46.318 11.2926 45.6847 12.8151 44.5505 13.9436" fill="#14CF6A"/>
<path d="M42.8637 46.9851C42.6653 46.9883 42.4683 46.9513 42.2852 46.8764C42.102 46.8015 41.9367 46.6903 41.7995 46.5497L36.0293 40.9356C35.765 40.6552 35.6216 40.2854 35.6292 39.9037C35.6368 39.5219 35.7948 39.1579 36.0701 38.8879C36.3453 38.6179 36.7164 38.4629 37.1057 38.4554C37.4948 38.448 37.8718 38.5886 38.1576 38.8479L43.8827 44.4638C44.0294 44.597 44.1465 44.7584 44.2266 44.9381C44.3066 45.1177 44.348 45.3116 44.348 45.5077C44.348 45.7037 44.3066 45.8977 44.2266 46.0773C44.1465 46.2569 44.0294 46.4184 43.8827 46.5515C43.7541 46.6907 43.5966 46.8013 43.4208 46.876C43.2452 46.9508 43.0551 46.9879 42.8637 46.9851Z" fill="#252525"/>
<path d="M4.17929 48.53C4.37768 48.5332 4.57463 48.4962 4.75773 48.4213C4.94092 48.3464 5.10627 48.2352 5.24349 48.0946L11.0136 42.4805C11.278 42.2001 11.4213 41.8303 11.4138 41.4486C11.4061 41.0668 11.2481 40.7028 10.9729 40.4328C10.6976 40.1628 10.3265 40.0078 9.93732 40.0003C9.5482 39.9929 9.17121 40.1335 8.88536 40.3928L3.16026 46.0087C3.01356 46.1419 2.89643 46.3033 2.8164 46.483C2.73637 46.6626 2.69498 46.8565 2.69498 47.0526C2.69498 47.2486 2.73637 47.4426 2.8164 47.6222C2.89643 47.8018 3.01356 47.9633 3.16026 48.0964C3.28891 48.2356 3.44642 48.3462 3.62217 48.4209C3.79782 48.4957 3.98784 48.5328 4.17929 48.53Z" fill="#252525"/>
<path d="M12.2633 40.3888C12.0892 40.4007 11.9151 40.3579 11.763 40.2658C11.6108 40.1738 11.4875 40.0365 11.4084 39.8713C11.3294 39.7062 11.2982 39.5206 11.3188 39.3379C11.3394 39.1552 11.4109 38.9836 11.5242 38.8448L22.0665 25.9553C22.1401 25.8578 22.2319 25.7771 22.3361 25.7182C22.4404 25.6593 22.5552 25.6233 22.6734 25.6124C22.7917 25.6016 22.911 25.616 23.0244 25.6549C23.1377 25.6939 23.2427 25.7565 23.333 25.839C23.4233 25.9215 23.4971 26.0223 23.5499 26.1351C23.6028 26.248 23.6335 26.3708 23.6405 26.496C23.6474 26.6212 23.6303 26.7463 23.5902 26.864C23.5501 26.9815 23.4879 27.0891 23.4071 27.1802L12.8898 40.069C12.8112 40.1638 12.7153 40.2409 12.6077 40.2958C12.5002 40.3508 12.3831 40.3824 12.2633 40.3888Z" fill="#252525"/>
<path d="M23.2937 27.8308C23.0884 27.8356 22.8842 27.7996 22.6936 27.7247C22.5029 27.6499 22.3297 27.5379 22.1844 27.3954C22.0393 27.253 21.9251 27.0831 21.8487 26.8961C21.7725 26.709 21.7357 26.5087 21.7407 26.3073V3.97487C21.7407 3.57077 21.9043 3.18317 22.1957 2.89737C22.487 2.61167 22.8821 2.45117 23.294 2.45117C23.706 2.45117 24.1011 2.61167 24.3925 2.89737C24.6837 3.18317 24.8474 3.57077 24.8474 3.97487V26.3073C24.8425 26.71 24.6773 27.0948 24.387 27.3795C24.0966 27.6642 23.7042 27.8261 23.2937 27.8308Z" fill="#252525"/>
<path d="M29.2844 24.9131H26.5771C26.228 24.1353 25.5946 23.514 24.8018 23.1716L24.7574 16.2945C24.7549 16.1085 24.7151 15.9248 24.64 15.7539C24.565 15.5831 24.4563 15.4285 24.3202 15.299C24.1841 15.1695 24.0233 15.0676 23.8469 14.9992C23.6705 14.9309 23.4822 14.8973 23.2925 14.9006C22.9052 14.9038 22.5344 15.0562 22.2605 15.325C21.9864 15.5938 21.8311 15.9574 21.8278 16.3374L21.8722 23.1723C21.2445 23.4419 20.7118 23.8873 20.3407 24.4525C19.9698 25.0177 19.777 25.6777 19.7865 26.3499C19.7845 26.8135 19.8762 27.273 20.0561 27.7017C20.236 28.1304 20.5008 28.5199 20.835 28.8478C21.1692 29.1756 21.5663 29.4353 22.0034 29.6118C22.4405 29.7884 22.9088 29.8782 23.3814 29.8763C24.0621 29.8651 24.726 29.6676 25.2984 29.3061C25.8707 28.9446 26.3288 28.4335 26.6209 27.8303L29.3752 27.7867C29.5658 27.7879 29.7547 27.7513 29.9306 27.6789C30.1064 27.6066 30.2654 27.5001 30.3982 27.3658C30.5308 27.2316 30.6345 27.0723 30.7028 26.8977C30.7711 26.7231 30.8026 26.5368 30.7956 26.3499C30.7928 26.1581 30.7516 25.9688 30.6741 25.7927C30.5967 25.6166 30.4845 25.4572 30.3441 25.3237C30.2037 25.1902 30.0378 25.0852 29.856 25.0147C29.6742 24.9443 29.4799 24.9097 29.2844 24.9131Z" fill="#252525"/>
<path d="M23.2936 46.9854C19.1242 46.9767 15.0511 45.7554 11.5893 43.476C8.12744 41.1965 5.43244 37.9613 3.84516 34.1793C2.25789 30.3974 1.8496 26.2387 2.67178 22.2291C3.49406 18.2196 5.51002 14.5392 8.46467 11.6535C11.4193 8.76794 15.18 6.80653 19.2711 6.01743C23.3621 5.22833 27.6 5.64704 31.4485 7.22054C35.297 8.79414 38.5832 11.4517 40.892 14.8574C43.2006 18.2631 44.4278 22.2639 44.4184 26.3538C44.3809 31.8299 42.1404 37.0699 38.1842 40.9338C34.228 44.7976 28.8764 46.9725 23.2936 46.9854ZM23.2936 8.67693C19.7299 8.67693 16.2464 9.71354 13.2833 11.6556C10.3203 13.5978 8.01082 16.3582 6.64711 19.5878C5.28339 22.8174 4.92659 26.3711 5.62185 29.7996C6.31711 33.2282 8.03324 36.3774 10.5532 38.8492C13.0731 41.321 16.2837 43.0043 19.7789 43.6862C23.274 44.3681 26.8969 44.018 30.1892 42.6801C33.4816 41.3423 36.2956 39.0768 38.2754 36.1702C40.2552 33.2636 41.3118 29.8464 41.3117 26.3507C41.3089 21.6641 39.4096 17.1702 36.0312 13.8563C32.6527 10.5424 28.0714 8.67953 23.2936 8.67693Z" fill="#252525"/>
<path d="M43.5761 14.5097C43.3246 14.5065 43.0774 14.4458 42.854 14.3325C42.6306 14.2192 42.4372 14.0564 42.2891 13.8569C40.6425 11.406 38.4971 9.31542 35.9875 7.71662C35.652 7.49152 35.4215 7.14482 35.3466 6.75292C35.2716 6.36112 35.3586 5.95612 35.5881 5.62702C35.8177 5.29802 36.171 5.07192 36.5705 4.99842C36.9699 4.92492 37.3828 5.01012 37.7183 5.23532C40.5181 7.08932 42.9286 9.45392 44.8187 12.2003C45.0423 12.5308 45.1257 12.9338 45.0512 13.3237C44.9765 13.7135 44.7499 14.0595 44.4193 14.288C44.1549 14.4129 43.8688 14.4881 43.5761 14.5097Z" fill="#252525"/>
<path d="M3.05564 14.424C2.74002 14.4248 2.43123 14.334 2.16801 14.1631C1.99939 14.054 1.85484 13.9127 1.743 13.7476C1.63117 13.5825 1.5543 13.3971 1.51709 13.2023C1.47978 13.0075 1.48284 12.8073 1.52607 12.6137C1.56929 12.4201 1.65187 12.237 1.76869 12.0754C3.66517 9.38821 6.04017 7.05851 8.77962 5.19821C9.11502 4.97301 9.52789 4.88781 9.92741 4.96131C10.3269 5.03481 10.6803 5.26091 10.9097 5.58991C11.1393 5.91901 11.2262 6.32401 11.1513 6.71581C11.0764 7.10771 10.8458 7.45431 10.5104 7.67951C8.0498 9.28781 5.93843 11.3585 4.29824 13.7719C4.16255 13.9732 3.97793 14.1383 3.76099 14.2521C3.54416 14.3659 3.30173 14.425 3.05564 14.424Z" fill="#252525"/>
<path d="M27.953 4.27931C27.8467 4.28661 27.74 4.27171 27.64 4.23571C24.7543 3.66971 21.7828 3.66971 18.8971 4.23571C18.4995 4.29901 18.0925 4.20621 17.7642 3.97751C17.4358 3.74871 17.2124 3.40231 17.1425 3.01331C17.0725 2.62421 17.1614 2.22381 17.39 1.89851C17.6187 1.57331 17.9688 1.34951 18.3643 1.27541C21.634 0.666009 24.9914 0.666009 28.261 1.27541C28.6552 1.35591 29.0032 1.58091 29.2341 1.90451C29.465 2.22811 29.5614 2.62601 29.5036 3.01681C29.4321 3.36991 29.239 3.68811 28.9567 3.91801C28.6744 4.14791 28.3199 4.27551 27.953 4.27931Z" fill="#252525"/>
</svg>
