<svg width="403" height="31" viewBox="0 0 403 31" fill="none" xmlns="http://www.w3.org/2000/svg">
<path d="M12.5781 13.1602V14.9233H3.72852V13.1602H12.5781ZM4.06543 6.12988V22.4814H1.89795V6.12988H4.06543ZM14.4648 6.12988V22.4814H12.3086V6.12988H14.4648ZM25.1675 20.4038V14.1484C25.1675 13.6693 25.0701 13.2537 24.8755 12.9019C24.6883 12.5425 24.4038 12.2655 24.022 12.0708C23.6401 11.8761 23.1685 11.7788 22.6069 11.7788C22.0828 11.7788 21.6224 11.8687 21.2256 12.0483C20.8363 12.228 20.5293 12.4639 20.3047 12.7559C20.0876 13.0479 19.979 13.3623 19.979 13.6992H17.9014C17.9014 13.265 18.0137 12.8345 18.2383 12.4077C18.4629 11.981 18.7848 11.5954 19.2041 11.251C19.6309 10.8991 20.14 10.6221 20.7314 10.4199C21.3304 10.2103 21.9967 10.1055 22.7305 10.1055C23.6139 10.1055 24.3926 10.2552 25.0664 10.5547C25.7477 10.8542 26.2793 11.3071 26.6611 11.9136C27.0505 12.5125 27.2451 13.265 27.2451 14.1709V19.8311C27.2451 20.2354 27.2788 20.6659 27.3462 21.1226C27.4211 21.5793 27.5296 21.9723 27.6719 22.3018V22.4814H25.5044C25.3996 22.2419 25.3172 21.9237 25.2573 21.5269C25.1974 21.1226 25.1675 20.7482 25.1675 20.4038ZM25.5269 15.1143L25.5493 16.5742H23.4492C22.8577 16.5742 22.3299 16.6229 21.8657 16.7202C21.4015 16.8101 21.0122 16.9486 20.6978 17.1357C20.3833 17.3229 20.1437 17.5588 19.979 17.8433C19.8143 18.1203 19.7319 18.446 19.7319 18.8203C19.7319 19.2021 19.818 19.5503 19.9902 19.8647C20.1624 20.1792 20.4207 20.43 20.7651 20.6172C21.117 20.7969 21.5475 20.8867 22.0566 20.8867C22.693 20.8867 23.2546 20.752 23.7412 20.4824C24.2279 20.2129 24.6134 19.8835 24.8979 19.4941C25.1899 19.1048 25.3472 18.7267 25.3696 18.3599L26.2568 19.3594C26.2044 19.6738 26.0622 20.022 25.8301 20.4038C25.598 20.7856 25.2873 21.1525 24.8979 21.5044C24.5161 21.8488 24.0594 22.137 23.5278 22.3691C23.0037 22.5938 22.4123 22.7061 21.7534 22.7061C20.9299 22.7061 20.2074 22.5451 19.5859 22.2231C18.972 21.9012 18.4928 21.4707 18.1484 20.9316C17.8115 20.3851 17.6431 19.7749 17.6431 19.1011C17.6431 18.4497 17.7703 17.877 18.0249 17.3828C18.2795 16.8812 18.6463 16.4657 19.1255 16.1362C19.6047 15.7993 20.1812 15.5448 20.855 15.3726C21.5288 15.2004 22.2812 15.1143 23.1123 15.1143H25.5269ZM32.5908 12.9243V22.4814H30.5132V10.3301H32.4785L32.5908 12.9243ZM32.0967 15.9453L31.2319 15.9116C31.2394 15.0806 31.363 14.3132 31.6025 13.6094C31.8421 12.8981 32.179 12.2804 32.6133 11.7563C33.0475 11.2323 33.5641 10.828 34.1631 10.5435C34.7695 10.2515 35.4396 10.1055 36.1733 10.1055C36.7723 10.1055 37.3114 10.1878 37.7905 10.3525C38.2697 10.5098 38.6777 10.7643 39.0146 11.1162C39.359 11.4681 39.6211 11.9248 39.8008 12.4863C39.9805 13.0404 40.0703 13.7179 40.0703 14.519V22.4814H37.9814V14.4966C37.9814 13.8602 37.8879 13.3511 37.7007 12.9692C37.5135 12.5799 37.2402 12.2992 36.8809 12.127C36.5215 11.9473 36.0798 11.8574 35.5557 11.8574C35.0391 11.8574 34.5674 11.966 34.1406 12.1831C33.7214 12.4002 33.3582 12.6997 33.0513 13.0815C32.7518 13.4634 32.516 13.9014 32.3438 14.3955C32.179 14.8822 32.0967 15.3988 32.0967 15.9453ZM50.8853 20.123V5.23145H52.9741V22.4814H51.0649L50.8853 20.123ZM42.7095 16.5405V16.3047C42.7095 15.3763 42.8218 14.534 43.0464 13.7778C43.2785 13.0142 43.6042 12.359 44.0234 11.8125C44.4502 11.266 44.9556 10.8467 45.5396 10.5547C46.131 10.2552 46.7899 10.1055 47.5161 10.1055C48.2798 10.1055 48.9461 10.2402 49.5151 10.5098C50.0916 10.7718 50.5783 11.1574 50.9751 11.6665C51.3794 12.1681 51.6976 12.7746 51.9297 13.4858C52.1618 14.1971 52.3228 15.002 52.4126 15.9004V16.9336C52.3302 17.8245 52.1693 18.6257 51.9297 19.3369C51.6976 20.0482 51.3794 20.6546 50.9751 21.1562C50.5783 21.6579 50.0916 22.0435 49.5151 22.313C48.9386 22.575 48.2648 22.7061 47.4937 22.7061C46.7824 22.7061 46.131 22.5526 45.5396 22.2456C44.9556 21.9386 44.4502 21.5081 44.0234 20.9541C43.6042 20.4001 43.2785 19.7487 43.0464 19C42.8218 18.2438 42.7095 17.424 42.7095 16.5405ZM44.7983 16.3047V16.5405C44.7983 17.147 44.8582 17.716 44.978 18.2476C45.1053 18.7791 45.3 19.2471 45.562 19.6514C45.8241 20.0557 46.1572 20.3739 46.5615 20.606C46.9658 20.8306 47.4487 20.9429 48.0103 20.9429C48.6991 20.9429 49.2643 20.7969 49.7061 20.5049C50.1553 20.2129 50.5146 19.8273 50.7842 19.3481C51.0537 18.869 51.2633 18.3486 51.4131 17.7871V15.0806C51.3232 14.6688 51.1922 14.272 51.02 13.8901C50.8553 13.5008 50.6382 13.1564 50.3687 12.8569C50.1066 12.55 49.7809 12.3066 49.3916 12.127C49.0098 11.9473 48.5568 11.8574 48.0327 11.8574C47.4637 11.8574 46.9733 11.9772 46.5615 12.2168C46.1572 12.4489 45.8241 12.7708 45.562 13.1826C45.3 13.5869 45.1053 14.0586 44.978 14.5977C44.8582 15.1292 44.7983 15.6982 44.7983 16.3047ZM58.2749 12.7446V22.4814H56.186V10.3301H58.1626L58.2749 12.7446ZM57.8481 15.9453L56.8823 15.9116C56.8898 15.0806 56.9984 14.3132 57.208 13.6094C57.4176 12.8981 57.7284 12.2804 58.1401 11.7563C58.5519 11.2323 59.0648 10.828 59.6787 10.5435C60.2926 10.2515 61.0039 10.1055 61.8125 10.1055C62.3815 10.1055 62.9056 10.1878 63.3848 10.3525C63.8639 10.5098 64.2795 10.7606 64.6313 11.105C64.9832 11.4494 65.2565 11.8911 65.4512 12.4302C65.6458 12.9692 65.7432 13.6206 65.7432 14.3843V22.4814H63.6655V14.4854C63.6655 13.849 63.557 13.3398 63.3398 12.958C63.1302 12.5762 62.8307 12.2992 62.4414 12.127C62.0521 11.9473 61.5954 11.8574 61.0713 11.8574C60.4574 11.8574 59.9445 11.966 59.5327 12.1831C59.1209 12.4002 58.7915 12.6997 58.5444 13.0815C58.2974 13.4634 58.1177 13.9014 58.0054 14.3955C57.9006 14.8822 57.8481 15.3988 57.8481 15.9453ZM65.7207 14.7998L64.3281 15.2266C64.3356 14.5602 64.4442 13.9201 64.6538 13.3062C64.8709 12.6922 65.1816 12.1457 65.5859 11.6665C65.9977 11.1873 66.5031 10.8092 67.1021 10.5322C67.701 10.2477 68.3861 10.1055 69.1572 10.1055C69.8086 10.1055 70.3851 10.1916 70.8867 10.3638C71.3958 10.536 71.8226 10.8018 72.167 11.1611C72.5189 11.513 72.7847 11.966 72.9644 12.52C73.144 13.0741 73.2339 13.7329 73.2339 14.4966V22.4814H71.145V14.4741C71.145 13.7928 71.0365 13.265 70.8193 12.8906C70.6097 12.5088 70.3102 12.243 69.9209 12.0933C69.5391 11.936 69.0824 11.8574 68.5508 11.8574C68.0941 11.8574 67.6898 11.936 67.3379 12.0933C66.986 12.2505 66.6903 12.4676 66.4507 12.7446C66.2111 13.0142 66.0277 13.3249 65.9004 13.6768C65.7806 14.0286 65.7207 14.403 65.7207 14.7998ZM83.5435 20.4038V14.1484C83.5435 13.6693 83.4461 13.2537 83.2515 12.9019C83.0643 12.5425 82.7798 12.2655 82.3979 12.0708C82.0161 11.8761 81.5444 11.7788 80.9829 11.7788C80.4588 11.7788 79.9984 11.8687 79.6016 12.0483C79.2122 12.228 78.9053 12.4639 78.6807 12.7559C78.4635 13.0479 78.355 13.3623 78.355 13.6992H76.2773C76.2773 13.265 76.3896 12.8345 76.6143 12.4077C76.8389 11.981 77.1608 11.5954 77.5801 11.251C78.0068 10.8991 78.516 10.6221 79.1074 10.4199C79.7064 10.2103 80.3727 10.1055 81.1064 10.1055C81.9899 10.1055 82.7686 10.2552 83.4424 10.5547C84.1237 10.8542 84.6553 11.3071 85.0371 11.9136C85.4264 12.5125 85.6211 13.265 85.6211 14.1709V19.8311C85.6211 20.2354 85.6548 20.6659 85.7222 21.1226C85.797 21.5793 85.9056 21.9723 86.0479 22.3018V22.4814H83.8804C83.7756 22.2419 83.6932 21.9237 83.6333 21.5269C83.5734 21.1226 83.5435 20.7482 83.5435 20.4038ZM83.9028 15.1143L83.9253 16.5742H81.8252C81.2337 16.5742 80.7059 16.6229 80.2417 16.7202C79.7775 16.8101 79.3882 16.9486 79.0737 17.1357C78.7593 17.3229 78.5197 17.5588 78.355 17.8433C78.1903 18.1203 78.1079 18.446 78.1079 18.8203C78.1079 19.2021 78.194 19.5503 78.3662 19.8647C78.5384 20.1792 78.7967 20.43 79.1411 20.6172C79.493 20.7969 79.9235 20.8867 80.4326 20.8867C81.069 20.8867 81.6305 20.752 82.1172 20.4824C82.6038 20.2129 82.9894 19.8835 83.2739 19.4941C83.5659 19.1048 83.7231 18.7267 83.7456 18.3599L84.6328 19.3594C84.5804 19.6738 84.4382 20.022 84.2061 20.4038C83.974 20.7856 83.6632 21.1525 83.2739 21.5044C82.8921 21.8488 82.4354 22.137 81.9038 22.3691C81.3797 22.5938 80.7882 22.7061 80.1294 22.7061C79.3058 22.7061 78.5833 22.5451 77.9619 22.2231C77.348 21.9012 76.8688 21.4707 76.5244 20.9316C76.1875 20.3851 76.019 19.7749 76.019 19.1011C76.019 18.4497 76.1463 17.877 76.4009 17.3828C76.6554 16.8812 77.0223 16.4657 77.5015 16.1362C77.9806 15.7993 78.5571 15.5448 79.231 15.3726C79.9048 15.2004 80.6572 15.1143 81.4883 15.1143H83.9028ZM96.5483 20.123V5.23145H98.6372V22.4814H96.728L96.5483 20.123ZM88.3726 16.5405V16.3047C88.3726 15.3763 88.4849 14.534 88.7095 13.7778C88.9416 13.0142 89.2673 12.359 89.6865 11.8125C90.1133 11.266 90.6187 10.8467 91.2026 10.5547C91.7941 10.2552 92.453 10.1055 93.1792 10.1055C93.9429 10.1055 94.6092 10.2402 95.1782 10.5098C95.7547 10.7718 96.2414 11.1574 96.6382 11.6665C97.0425 12.1681 97.3607 12.7746 97.5928 13.4858C97.8249 14.1971 97.9858 15.002 98.0757 15.9004V16.9336C97.9933 17.8245 97.8324 18.6257 97.5928 19.3369C97.3607 20.0482 97.0425 20.6546 96.6382 21.1562C96.2414 21.6579 95.7547 22.0435 95.1782 22.313C94.6017 22.575 93.9279 22.7061 93.1567 22.7061C92.4455 22.7061 91.7941 22.5526 91.2026 22.2456C90.6187 21.9386 90.1133 21.5081 89.6865 20.9541C89.2673 20.4001 88.9416 19.7487 88.7095 19C88.4849 18.2438 88.3726 17.424 88.3726 16.5405ZM90.4614 16.3047V16.5405C90.4614 17.147 90.5213 17.716 90.6411 18.2476C90.7684 18.7791 90.9631 19.2471 91.2251 19.6514C91.4871 20.0557 91.8203 20.3739 92.2246 20.606C92.6289 20.8306 93.1118 20.9429 93.6733 20.9429C94.3621 20.9429 94.9274 20.7969 95.3691 20.5049C95.8184 20.2129 96.1777 19.8273 96.4473 19.3481C96.7168 18.869 96.9264 18.3486 97.0762 17.7871V15.0806C96.9863 14.6688 96.8553 14.272 96.6831 13.8901C96.5184 13.5008 96.3013 13.1564 96.0317 12.8569C95.7697 12.55 95.444 12.3066 95.0547 12.127C94.6729 11.9473 94.2199 11.8574 93.6958 11.8574C93.1268 11.8574 92.6364 11.9772 92.2246 12.2168C91.8203 12.4489 91.4871 12.7708 91.2251 13.1826C90.9631 13.5869 90.7684 14.0586 90.6411 14.5977C90.5213 15.1292 90.4614 15.6982 90.4614 16.3047ZM106.914 22.7061C106.068 22.7061 105.301 22.5638 104.612 22.2793C103.931 21.9873 103.343 21.5793 102.849 21.0552C102.362 20.5311 101.988 19.9097 101.726 19.1909C101.464 18.4722 101.333 17.686 101.333 16.8325V16.3608C101.333 15.3726 101.479 14.4928 101.771 13.7217C102.062 12.943 102.459 12.2842 102.961 11.7451C103.463 11.2061 104.032 10.798 104.668 10.521C105.304 10.244 105.963 10.1055 106.645 10.1055C107.513 10.1055 108.262 10.2552 108.891 10.5547C109.527 10.8542 110.047 11.2734 110.452 11.8125C110.856 12.3441 111.155 12.973 111.35 13.6992C111.545 14.418 111.642 15.2041 111.642 16.0576V16.9897H102.568V15.2939H109.564V15.1367C109.535 14.5977 109.422 14.0736 109.228 13.5645C109.04 13.0553 108.741 12.6361 108.329 12.3066C107.917 11.9772 107.356 11.8125 106.645 11.8125C106.173 11.8125 105.739 11.9136 105.342 12.1157C104.945 12.3104 104.604 12.6024 104.32 12.9917C104.035 13.381 103.814 13.8564 103.657 14.418C103.5 14.9795 103.421 15.6271 103.421 16.3608V16.8325C103.421 17.409 103.5 17.9518 103.657 18.4609C103.822 18.9626 104.058 19.4043 104.365 19.7861C104.679 20.168 105.057 20.4674 105.499 20.6846C105.948 20.9017 106.457 21.0103 107.026 21.0103C107.76 21.0103 108.382 20.8605 108.891 20.561C109.4 20.2616 109.845 19.861 110.227 19.3594L111.485 20.3589C111.223 20.7557 110.89 21.1338 110.485 21.4932C110.081 21.8525 109.583 22.1445 108.992 22.3691C108.408 22.5938 107.715 22.7061 106.914 22.7061ZM125.916 14.8335H121.772L121.75 13.0928H125.512C126.133 13.0928 126.676 12.988 127.14 12.7783C127.604 12.5687 127.964 12.2692 128.218 11.8799C128.48 11.4831 128.611 11.0114 128.611 10.4648C128.611 9.86589 128.495 9.37923 128.263 9.00488C128.039 8.62305 127.69 8.34603 127.219 8.17383C126.755 7.99414 126.163 7.9043 125.444 7.9043H122.255V22.4814H120.087V6.12988H125.444C126.283 6.12988 127.032 6.21598 127.69 6.38818C128.349 6.5529 128.907 6.81494 129.364 7.17432C129.828 7.5262 130.18 7.97542 130.419 8.52197C130.659 9.06852 130.779 9.72363 130.779 10.4873C130.779 11.1611 130.607 11.7713 130.262 12.3179C129.918 12.8569 129.439 13.2987 128.825 13.6431C128.218 13.9875 127.507 14.2083 126.691 14.3057L125.916 14.8335ZM125.815 22.4814H120.918L122.143 20.7183H125.815C126.504 20.7183 127.088 20.5985 127.567 20.3589C128.054 20.1193 128.424 19.7824 128.679 19.3481C128.933 18.9064 129.061 18.3861 129.061 17.7871C129.061 17.1807 128.952 16.6566 128.735 16.2148C128.518 15.7731 128.177 15.4325 127.713 15.1929C127.249 14.9533 126.65 14.8335 125.916 14.8335H122.828L122.85 13.0928H127.073L127.533 13.7217C128.319 13.7891 128.986 14.0137 129.532 14.3955C130.079 14.7699 130.494 15.249 130.779 15.833C131.071 16.417 131.217 17.0609 131.217 17.7646C131.217 18.7829 130.992 19.6439 130.543 20.3477C130.101 21.0439 129.476 21.5755 128.667 21.9424C127.859 22.3018 126.908 22.4814 125.815 22.4814ZM137.517 21.2236L140.897 10.3301H143.121L138.247 24.3569C138.135 24.6564 137.985 24.9784 137.798 25.3228C137.618 25.6746 137.386 26.0078 137.102 26.3223C136.817 26.6367 136.473 26.8913 136.068 27.0859C135.672 27.2881 135.196 27.3892 134.642 27.3892C134.477 27.3892 134.268 27.3667 134.013 27.3218C133.759 27.2769 133.579 27.2394 133.474 27.2095L133.463 25.5249C133.523 25.5324 133.616 25.5399 133.744 25.5474C133.878 25.5623 133.972 25.5698 134.024 25.5698C134.496 25.5698 134.897 25.5062 135.226 25.3789C135.556 25.2591 135.833 25.0532 136.057 24.7612C136.289 24.4767 136.488 24.0837 136.652 23.582L137.517 21.2236ZM135.035 10.3301L138.191 19.7637L138.73 21.9536L137.236 22.7173L132.767 10.3301H135.035Z" fill="white"/>
<path d="M157.127 16.4611H162.506C162.506 18.3711 164.097 19.8317 166.18 19.8317C168.301 19.8317 169.855 18.3682 169.855 16.4583L169.849 0.0435791H175.076L175.083 16.4554C175.083 21.0099 171.261 24.4553 166.108 24.4553C160.993 24.4553 157.13 21.0157 157.127 16.4611Z" fill="white"/>
<path d="M199.591 19.5868V23.9685H198.191C195.464 23.9685 193.72 23.0322 193.001 21.1885C191.485 23.1705 189.176 24.3891 186.374 24.3891C180.995 24.3891 176.938 20.3934 176.938 15.1072C176.938 9.82098 180.989 5.81958 186.367 5.81958C188.981 5.81958 191.14 6.85954 192.656 8.56496V6.23441H197.579L197.586 18.0917C197.586 19.0308 198.154 19.5868 199.214 19.5868H199.594H199.591ZM192.656 15.1043C192.656 12.3215 190.381 10.2012 187.312 10.2041C184.28 10.2041 182.009 12.3273 182.012 15.1101C182.012 17.8929 184.287 20.0132 187.318 20.0132C190.387 20.0132 192.659 17.89 192.656 15.1072V15.1043Z" fill="white"/>
<path d="M233.992 19.5752V23.9569H232.593C228.918 23.9569 227.023 22.2889 227.023 19.0567V13.7705C227.02 11.6128 225.542 10.1896 223.232 10.1896C220.807 10.1896 219.178 11.6502 219.181 13.8425V23.9627H214.261V13.7762C214.254 11.6185 212.739 10.1954 210.467 10.1954C208.041 10.1954 206.378 11.656 206.378 13.8482V23.9684H201.457L201.451 6.23434H206.375V8.28257C207.777 6.64917 209.748 5.81374 212.095 5.81086C214.973 5.81086 217.173 6.99198 218.309 9.00853C219.787 6.91996 222.021 5.80798 224.861 5.80798C229.103 5.80798 231.947 8.41221 231.947 12.4136V18.083C231.947 19.0221 232.555 19.5781 233.578 19.5781H233.996L233.992 19.5752Z" fill="white"/>
<path d="M256.464 15.1389C256.464 20.4251 252.454 24.4265 247.072 24.4265C244.458 24.4265 242.299 23.3865 240.784 21.6811V24.0117H235.86L235.851 0.0435791H240.774V8.60814C242.293 6.90272 244.452 5.85988 247.066 5.85988C252.444 5.85988 256.461 9.85552 256.464 15.1418V15.1389ZM251.387 15.1389C251.387 12.356 249.15 10.2358 246.081 10.2387C243.049 10.2387 240.777 12.3618 240.78 15.1446C240.78 17.9275 243.055 20.0477 246.087 20.0448C249.156 20.0448 251.39 17.9217 251.387 15.1389Z" fill="white"/>
<path d="M258.312 15.136C258.312 9.84979 262.778 5.85127 268.69 5.84839C274.599 5.84839 279.071 9.84403 279.074 15.1303C279.074 20.4165 274.608 24.4179 268.699 24.4208C262.79 24.4208 258.319 20.4251 258.316 15.1389L258.312 15.136ZM273.996 15.1303C273.996 12.3474 271.759 10.2272 268.69 10.2301C265.659 10.2301 263.387 12.3532 263.39 15.136C263.39 17.9189 265.665 20.0391 268.696 20.0362C271.765 20.0362 273.999 17.9131 273.996 15.1303Z" fill="white"/>
<path d="M302.053 7.99129C302.053 12.5458 298.156 15.9912 293.079 15.9941H286.639V23.994H281.415L281.405 7.2274e-06H293.072C298.15 -0.00575433 302.05 3.4339 302.053 7.99129ZM296.675 7.99129C296.675 6.00931 295.081 4.51419 292.959 4.51419H286.633V11.4713H292.963C295.084 11.4684 296.675 9.97327 296.675 7.99129Z" fill="white"/>
<path d="M325.273 19.5979V23.9796H323.873C321.146 23.9796 319.404 23.0434 318.683 21.1997C317.167 23.1816 314.857 24.4002 312.055 24.4002C306.677 24.4002 302.622 20.4046 302.619 15.1183C302.619 9.83209 306.67 5.83069 312.049 5.83069C314.663 5.83069 316.822 6.87065 318.338 8.57607V6.24552H323.261L323.267 18.1028C323.267 19.0419 323.835 19.5979 324.896 19.5979H325.276H325.273ZM318.338 15.1154C318.338 12.3326 316.062 10.2124 312.993 10.2152C309.962 10.2152 307.69 12.3384 307.693 15.1212C307.693 17.904 309.968 20.0243 313 20.0243C316.069 20.0243 318.341 17.9012 318.338 15.1183V15.1154Z" fill="white"/>
<path d="M345.17 6.23694L345.177 22.9656C345.177 27.7996 341.392 31.0001 336.127 31.0001C331.58 31.0001 328.322 28.6725 327.221 24.8842H332.298C333.017 26.0999 334.382 26.8633 336.048 26.8633C338.474 26.8633 340.25 25.3307 340.25 22.9311V21.2977C338.81 22.9656 336.801 23.8702 334.379 23.8731C330.023 23.8731 327.105 21.1997 327.102 17.0946V6.24558H332.022V15.7378C332.028 17.9992 333.619 19.4943 336.004 19.4914C338.543 19.4914 340.247 17.9588 340.244 15.6629V6.23982H345.164L345.17 6.23694Z" fill="white"/>
<path d="M347.034 6.72955H348.173V9.21566H348.773V6.72955H349.902V6.23694H347.034V6.72955Z" fill="white"/>
<path d="M351.691 8.42057L350.731 6.23694H350.15L349.915 9.21566H350.505L350.649 7.33452L351.49 9.21566H351.892L352.733 7.33452L352.877 9.21566H353.467L353.232 6.23694H352.651L351.691 8.42057Z" fill="white"/>
<path d="M367.397 11.5492C367.397 12.2348 367.124 12.7764 366.575 13.1768C366.026 13.5772 365.298 13.7789 364.388 13.7789C363.296 13.7789 362.458 13.6694 361.874 13.4476V12.8743C362.517 13.125 363.339 13.2488 364.341 13.2488C365.075 13.2488 365.658 13.0933 366.088 12.785C366.518 12.4768 366.735 12.0706 366.735 11.5693C366.735 11.2582 366.663 11.0018 366.521 10.7973C366.38 10.5928 366.145 10.4055 365.825 10.2384C365.502 10.0713 365.028 9.88984 364.406 9.69395C363.493 9.40587 362.863 9.09475 362.511 8.76057C362.163 8.42352 361.987 7.97988 361.987 7.42101C361.987 6.80741 362.247 6.30615 362.771 5.91724C363.296 5.52834 363.97 5.33533 364.792 5.33533C365.633 5.33533 366.421 5.47937 367.162 5.7732L366.936 6.2687C366.192 5.9835 365.483 5.84234 364.808 5.84234C364.146 5.84234 363.622 5.9835 363.23 6.26294C362.841 6.54525 362.643 6.9284 362.643 7.40949C362.643 7.71197 362.702 7.9626 362.825 8.15849C362.947 8.35438 363.142 8.52723 363.415 8.68279C363.688 8.83835 364.159 9.02561 364.821 9.24166C365.517 9.46348 366.041 9.67666 366.393 9.88408C366.744 10.0915 367.002 10.3277 367.162 10.5899C367.322 10.8549 367.403 11.1718 367.403 11.5463L367.397 11.5492Z" fill="white"/>
<path d="M364.388 13.9719C363.255 13.9719 362.408 13.8596 361.796 13.6262L361.667 13.5773V12.592L361.953 12.7044C362.568 12.9435 363.368 13.0645 364.337 13.0645C365.022 13.0645 365.564 12.9204 365.957 12.641C366.34 12.3673 366.525 12.0187 366.522 11.5751C366.522 11.3014 366.462 11.0767 366.34 10.9039C366.217 10.7253 366.004 10.5582 365.715 10.4055C365.404 10.2442 364.937 10.0656 364.331 9.87833C363.374 9.57585 362.728 9.2532 362.354 8.89598C361.968 8.52436 361.774 8.02887 361.774 7.4239C361.774 6.75268 362.062 6.19669 362.637 5.77322C363.195 5.35838 363.92 5.15097 364.789 5.15097C365.655 5.13944 366.474 5.30077 367.237 5.60325L367.425 5.67815L367.042 6.51934L366.851 6.44732C366.139 6.17365 365.451 6.03537 364.805 6.03537H364.802C364.19 6.03537 363.704 6.165 363.349 6.41563C363.007 6.6605 362.841 6.98891 362.841 7.41238C362.841 7.68317 362.894 7.90211 362.994 8.06632C363.098 8.2334 363.274 8.38608 363.515 8.52148C363.776 8.67128 364.237 8.85277 364.883 9.06307C365.602 9.29065 366.132 9.50671 366.5 9.72565C366.879 9.95035 367.162 10.2125 367.334 10.5006C367.513 10.7887 367.604 11.143 367.604 11.5492C367.604 12.2924 367.303 12.8887 366.704 13.3266C366.12 13.753 365.342 13.969 364.388 13.969V13.9719ZM362.078 13.3209C362.627 13.4995 363.402 13.5917 364.388 13.5917C365.244 13.5917 365.938 13.4015 366.446 13.0299C366.948 12.664 367.193 12.1801 367.19 11.5492C367.19 11.2092 367.118 10.9183 366.973 10.6849C366.832 10.4516 366.597 10.2355 366.274 10.0425C365.941 9.84376 365.426 9.63346 364.745 9.42028C364.061 9.19846 363.587 9.00833 363.299 8.84413C362.998 8.67416 362.775 8.47539 362.637 8.25357C362.499 8.03175 362.43 7.74943 362.43 7.41238C362.43 6.87079 362.652 6.4358 363.095 6.11603C363.522 5.81067 364.096 5.6551 364.802 5.6551H364.808C365.448 5.6551 366.126 5.77898 366.82 6.02384L366.886 5.87692C366.23 5.64358 365.527 5.52547 364.796 5.52547H364.789C364.017 5.52547 363.38 5.70696 362.897 6.06417C362.42 6.41563 362.188 6.85927 362.188 7.42102C362.188 7.93092 362.342 8.32559 362.655 8.63095C362.979 8.94207 363.587 9.23879 364.466 9.51823C365.097 9.71412 365.586 9.90137 365.919 10.0771C366.27 10.2586 366.528 10.4689 366.688 10.6993C366.851 10.9327 366.936 11.2265 366.936 11.5722C366.936 12.1311 366.694 12.592 366.211 12.9377C365.746 13.2719 365.116 13.4419 364.337 13.4419C363.456 13.4419 362.696 13.3439 362.078 13.1509V13.3209Z" fill="white"/>
<path d="M369.048 5.86532C369.048 5.50522 369.177 5.32373 369.434 5.32373C369.559 5.32373 369.66 5.36982 369.732 5.46489C369.804 5.55995 369.839 5.69247 369.839 5.86243C369.839 6.0324 369.804 6.16204 369.732 6.25998C369.66 6.35793 369.563 6.4069 369.434 6.4069C369.177 6.4069 369.048 6.22541 369.048 5.86243V5.86532ZM369.741 13.6665H369.136V7.5621H369.738V13.6665H369.741Z" fill="white"/>
<path d="M369.949 13.8566H368.932V7.37201H369.949V13.8566ZM369.346 13.4793H369.541V7.75227H369.346V13.4793ZM369.441 6.59996C369.221 6.59996 368.851 6.50489 368.851 5.86824C368.851 5.23159 369.265 5.1394 369.441 5.1394C369.635 5.1394 369.795 5.2143 369.908 5.36122C370.005 5.49086 370.052 5.65506 370.052 5.86824C370.052 6.08142 370.005 6.24274 369.911 6.37238C369.798 6.52218 369.638 6.60284 369.444 6.60284L369.441 6.59996ZM369.441 5.51679C369.387 5.51679 369.262 5.51679 369.262 5.86824C369.262 6.2197 369.387 6.22258 369.441 6.22258C369.497 6.22258 369.535 6.20529 369.566 6.1592C369.613 6.09582 369.638 5.995 369.638 5.86824C369.638 5.74149 369.613 5.63778 369.569 5.57728C369.538 5.53407 369.5 5.51679 369.441 5.51679Z" fill="white"/>
<path d="M380.275 13.6637V9.65941C380.275 9.06309 380.147 8.63097 379.892 8.3573C379.638 8.08362 379.252 7.94823 378.728 7.94823C378.047 7.94823 377.542 8.12108 377.219 8.46389C376.893 8.80958 376.729 9.35117 376.729 10.0886V13.6666H376.114V9.49233C376.114 8.46389 375.6 7.94823 374.57 7.94823C373.874 7.94823 373.365 8.13548 373.048 8.5071C372.731 8.87872 372.571 9.47504 372.571 10.2961V13.6666H371.966V7.5622H372.465L372.593 8.40051H372.631C372.813 8.09803 373.074 7.8618 373.412 7.69472C373.751 7.52763 374.125 7.44409 374.533 7.44409C375.581 7.44409 376.252 7.80419 376.554 8.52726H376.579C376.795 8.17869 377.084 7.91078 377.448 7.72353C377.812 7.53628 378.229 7.44409 378.694 7.44409C379.422 7.44409 379.965 7.6227 380.329 7.97704C380.693 8.33425 380.875 8.89889 380.875 9.67382V13.6666H380.278L380.275 13.6637Z" fill="white"/>
<path d="M372.778 13.8567H371.762V7.37209H372.647L372.734 7.94249C372.898 7.7754 373.092 7.63712 373.318 7.52477C373.685 7.34328 374.096 7.25398 374.536 7.25398C375.521 7.25398 376.211 7.55934 376.591 8.16143C376.798 7.91368 377.049 7.70914 377.347 7.55646C377.743 7.35481 378.195 7.2511 378.694 7.2511H378.697C379.478 7.2511 380.074 7.44987 380.476 7.84454C380.875 8.23345 381.079 8.84705 381.079 9.67095V13.8538H380.068V9.65943C380.068 9.11208 379.955 8.71742 379.735 8.47831C379.522 8.24785 379.193 8.1355 378.734 8.1355H378.731C378.107 8.1355 377.664 8.28242 377.376 8.58778C377.084 8.89603 376.936 9.40016 376.936 10.0887V13.8567H375.907V9.49235C375.907 9.02854 375.794 8.68285 375.574 8.46103C375.355 8.24209 375.028 8.1355 374.573 8.1355C373.936 8.1355 373.491 8.29394 373.215 8.62235C372.926 8.9594 372.782 9.52116 372.782 10.2932V13.8538L372.778 13.8567ZM372.173 13.4793H372.367V10.299C372.367 9.55572 372.49 8.99397 372.744 8.59066H372.455L372.392 8.42934L372.289 7.75524H372.173V13.4822V13.4793ZM376.324 13.4793H376.532V10.0915C376.532 9.31086 376.71 8.72318 377.068 8.34291C377.432 7.95689 377.994 7.761 378.734 7.761H378.738C379.318 7.761 379.761 7.91944 380.052 8.23633C380.341 8.54745 380.482 9.01414 380.482 9.66231V13.4793H380.671V9.67672C380.671 8.95364 380.504 8.42646 380.178 8.10957C379.858 7.79557 379.359 7.63712 378.7 7.63712H378.697C378.27 7.63712 377.884 7.72355 377.551 7.89351C377.216 8.06636 376.955 8.30547 376.761 8.62523L376.701 8.7203H376.437L376.362 8.5993C376.095 7.95113 375.496 7.63712 374.539 7.63712C374.162 7.63712 373.83 7.71202 373.516 7.86471C373.227 8.00586 373.001 8.20464 372.841 8.45527C372.857 8.4351 372.873 8.41493 372.891 8.39477C373.246 7.97417 373.814 7.76388 374.577 7.76388C375.148 7.76388 375.587 7.91368 375.882 8.2104C376.174 8.50136 376.321 8.93636 376.321 9.49523V13.4793H376.324Z" fill="white"/>
<path d="M385.877 13.7732C384.854 13.7732 384.108 13.4218 383.637 12.7189H383.593L383.612 13.1913C383.627 13.4679 383.637 13.7704 383.637 14.1016V16.4264H383.031V7.5594H383.54L383.656 8.42939H383.693C384.148 7.76969 384.88 7.44128 385.884 7.44128C386.781 7.44128 387.465 7.71208 387.936 8.25078C388.407 8.79237 388.642 9.57882 388.642 10.613C388.642 11.6184 388.394 12.3933 387.898 12.9465C387.403 13.4996 386.728 13.7761 385.871 13.7761L385.877 13.7732ZM385.865 13.2777C386.546 13.2777 387.073 13.0473 387.446 12.5806C387.82 12.1168 388.005 11.4657 388.005 10.6303C388.005 8.83846 387.299 7.94254 385.887 7.94254C385.112 7.94254 384.544 8.13843 384.18 8.53022C383.816 8.922 383.634 9.55866 383.637 10.4431V10.6217C383.637 11.5752 383.813 12.2579 384.161 12.667C384.509 13.0761 385.077 13.2777 385.865 13.2777Z" fill="white"/>
<path d="M382.827 16.6165V7.36921H383.725L383.806 7.9857C384.299 7.49885 384.996 7.2511 385.884 7.2511C386.844 7.2511 387.588 7.54782 388.099 8.13262C388.598 8.70589 388.852 9.53844 388.852 10.613C388.852 11.6558 388.585 12.4826 388.061 13.0674C387.528 13.6637 386.79 13.9662 385.874 13.9662C385.011 13.9662 384.324 13.7271 383.822 13.2518C383.838 13.511 383.844 13.7962 383.844 14.1016V16.6165H382.827ZM383.235 7.74947V16.2391H383.433V14.1016C383.433 13.7761 383.423 13.4765 383.408 13.2028L383.383 12.5316H383.712L383.816 12.6209C384.249 13.2719 384.923 13.5859 385.877 13.5859C386.674 13.5859 387.286 13.3382 387.744 12.8254C388.206 12.3098 388.441 11.5665 388.441 10.613C388.441 9.62774 388.218 8.87298 387.779 8.36884C387.346 7.87047 386.728 7.62848 385.887 7.62848C384.952 7.62848 384.289 7.9252 383.872 8.53017L383.812 8.61659H383.518L383.458 8.4495L383.364 7.74659H383.238L383.235 7.74947ZM385.862 13.4707C385.014 13.4707 384.387 13.2402 384.001 12.788C383.624 12.3443 383.433 11.6184 383.433 10.6274V10.4488C383.433 9.50963 383.627 8.84417 384.026 8.41206C384.428 7.97994 385.055 7.75812 385.89 7.75812C387.431 7.75812 388.215 8.72606 388.215 10.636C388.215 11.5089 388.014 12.2032 387.616 12.6987C387.205 13.2114 386.618 13.4736 385.868 13.4736H385.865L385.862 13.4707ZM385.887 8.1355C385.178 8.1355 384.657 8.31123 384.337 8.65692C384.007 9.01126 383.841 9.61334 383.841 10.4488V10.6274C383.841 11.5319 384.004 12.1801 384.321 12.5546C384.628 12.9176 385.134 13.0933 385.858 13.0933H385.862C386.48 13.0933 386.944 12.8917 387.277 12.474C387.622 12.0447 387.798 11.4282 387.798 10.636C387.798 8.95364 387.17 8.1355 385.884 8.1355H385.887Z" fill="white"/>
<path d="M391.096 13.6608H390.49V4.92053H391.093V13.6608H391.096Z" fill="white"/>
<path d="M391.3 13.848H390.283V4.73035H391.297V13.848H391.3ZM390.697 13.4706H390.892V5.11061H390.697V13.4706Z" fill="white"/>
<path d="M392.207 7.55354H392.831L394.24 10.9788C394.67 12.0303 394.94 12.7389 395.056 13.1077H395.094C395.263 12.6266 395.543 11.9035 395.932 10.9442L397.338 7.55066H397.962L394.984 14.646C394.743 15.2222 394.542 15.6111 394.379 15.8127C394.215 16.0144 394.024 16.1671 393.807 16.2679C393.588 16.3687 393.324 16.4206 393.017 16.4206C392.784 16.4206 392.524 16.3803 392.238 16.3025V15.8185C392.474 15.879 392.731 15.9078 393.004 15.9078C393.211 15.9078 393.396 15.8617 393.556 15.7724C393.713 15.6831 393.858 15.5448 393.986 15.3547C394.115 15.1646 394.262 14.8678 394.432 14.4559C394.601 14.0439 394.711 13.7789 394.758 13.655L392.21 7.55066L392.207 7.55354Z" fill="white"/>
<path d="M393.01 16.6107C392.759 16.6107 392.476 16.5704 392.175 16.4868L392.028 16.4465V15.5736L392.288 15.6399C392.652 15.732 393.126 15.7954 393.44 15.6168C393.572 15.5419 393.694 15.4238 393.804 15.2596C393.923 15.081 394.067 14.79 394.234 14.3954C394.378 14.0497 394.475 13.8048 394.532 13.6636L391.905 7.36914H392.972L394.431 10.9154C394.711 11.6039 394.927 12.1512 395.078 12.5545C395.247 12.1051 395.467 11.5463 395.734 10.8837L397.19 7.36914H398.257L395.172 14.7209C394.921 15.3172 394.717 15.7148 394.541 15.9337C394.359 16.1584 394.143 16.3312 393.895 16.4465C393.647 16.5617 393.352 16.6193 393.01 16.6193V16.6107ZM392.439 16.1613C392.982 16.2852 393.402 16.2448 393.71 16.1008C393.901 16.0115 394.064 15.8818 394.209 15.7004C394.359 15.5131 394.554 15.1357 394.786 14.5769L397.654 7.73788H397.472L396.116 11.0076C395.74 11.9352 395.461 12.6611 395.282 13.1624L395.235 13.292H394.93L394.852 13.1537C394.736 12.7821 394.463 12.0706 394.042 11.0393L392.683 7.735H392.502L394.971 13.6492L394.946 13.7155C394.896 13.8394 394.789 14.1073 394.617 14.5164C394.444 14.9341 394.287 15.2481 394.152 15.4468C394.008 15.66 393.841 15.8213 393.653 15.9279C393.314 16.121 392.84 16.1152 392.436 16.0489V16.1526L392.439 16.1613Z" fill="white"/>
<path d="M367.404 25.3539C367.404 26.0395 367.128 26.5811 366.582 26.9815C366.032 27.3819 365.304 27.5836 364.394 27.5836C363.302 27.5836 362.465 27.4741 361.881 27.2523V26.679C362.524 26.9296 363.346 27.0535 364.347 27.0535C365.082 27.0535 365.662 26.898 366.092 26.5897C366.522 26.2815 366.739 25.8753 366.739 25.374C366.739 25.0629 366.666 24.8065 366.522 24.602C366.381 24.3974 366.145 24.2102 365.825 24.0431C365.502 23.876 365.031 23.6945 364.407 23.4986C363.491 23.2106 362.86 22.8994 362.512 22.5653C362.163 22.2282 361.988 21.7846 361.988 21.2257C361.988 20.6121 362.248 20.1108 362.775 19.7219C363.299 19.333 363.971 19.14 364.796 19.14C365.637 19.14 366.425 19.2841 367.165 19.5779L366.939 20.0734C366.196 19.7882 365.486 19.647 364.812 19.647C364.15 19.647 363.626 19.7882 363.233 20.0676C362.841 20.3499 362.647 20.7331 362.647 21.2142C362.647 21.5167 362.706 21.7673 362.829 21.9632C362.951 22.1591 363.145 22.3319 363.418 22.4875C363.691 22.643 364.162 22.8303 364.824 23.0464C365.524 23.2682 366.048 23.4814 366.396 23.6888C366.745 23.8962 367.002 24.1324 367.165 24.3946C367.325 24.6596 367.407 24.9765 367.407 25.351L367.404 25.3539Z" fill="white"/>
<path d="M364.395 27.7737C363.262 27.7737 362.414 27.6614 361.802 27.428L361.674 27.379V26.3938L361.959 26.5062C362.571 26.7453 363.375 26.8663 364.344 26.8663C365.028 26.8663 365.571 26.7222 365.964 26.4428C366.346 26.1691 366.532 25.8205 366.532 25.3769C366.532 25.1032 366.469 24.8785 366.349 24.7057C366.227 24.5271 366.014 24.36 365.725 24.2073C365.414 24.046 364.95 23.8674 364.341 23.6801C363.384 23.3776 362.738 23.055 362.364 22.6978C361.978 22.3262 361.784 21.8335 361.784 21.2257C361.784 20.5545 362.076 19.9985 362.647 19.575C363.205 19.1602 363.927 18.9528 364.796 18.9528H364.802C365.662 18.9528 366.484 19.1054 367.247 19.405L367.435 19.4799L367.052 20.3211L366.861 20.2491C366.149 19.9754 365.461 19.8372 364.815 19.8372H364.812C364.2 19.8372 363.714 19.9668 363.359 20.2174C363.017 20.4652 362.851 20.7907 362.851 21.2142C362.851 21.485 362.904 21.7039 363.004 21.8681C363.108 22.0323 363.284 22.1879 363.525 22.3233C363.789 22.4731 364.247 22.6546 364.893 22.8649C365.612 23.0924 366.142 23.3085 366.51 23.5274C366.889 23.7521 367.172 24.0143 367.344 24.3024C367.523 24.5933 367.614 24.9448 367.614 25.351C367.614 26.0942 367.313 26.6934 366.713 27.1284C366.13 27.5548 365.352 27.7708 364.398 27.7708L364.395 27.7737ZM362.085 27.1227C362.634 27.3013 363.409 27.3934 364.395 27.3934C365.251 27.3934 365.945 27.2033 366.453 26.8317C366.955 26.4658 367.197 25.9819 367.197 25.351C367.197 25.011 367.121 24.7201 366.98 24.4867C366.839 24.2534 366.604 24.0373 366.28 23.8472C365.945 23.6484 365.43 23.4381 364.752 23.225C364.068 23.0031 363.594 22.813 363.302 22.6488C363.001 22.4788 362.778 22.2801 362.64 22.0582C362.502 21.8364 362.433 21.5541 362.433 21.2171C362.433 20.6755 362.656 20.2405 363.099 19.9207C363.525 19.6153 364.1 19.4598 364.806 19.4598C365.471 19.4655 366.127 19.5836 366.823 19.8285L366.889 19.6816C366.233 19.4483 365.53 19.3301 364.796 19.3301H364.79C364.018 19.3301 363.381 19.5116 362.898 19.8688C362.421 20.2203 362.188 20.6639 362.188 21.2257C362.188 21.7385 362.342 22.1331 362.656 22.4356C362.979 22.7467 363.588 23.0435 364.467 23.3229C365.097 23.5188 365.587 23.706 365.92 23.8818C366.271 24.0633 366.528 24.2736 366.688 24.504C366.852 24.7374 366.936 25.0312 366.936 25.3769C366.936 25.9387 366.692 26.3967 366.211 26.7424C365.747 27.0766 365.116 27.2465 364.338 27.2465C363.456 27.2465 362.697 27.1486 362.079 26.9556V27.1255L362.085 27.1227Z" fill="white"/>
<path d="M371.828 27.5836C370.862 27.5836 370.109 27.3099 369.566 26.7626C369.026 26.2181 368.756 25.4518 368.753 24.4666C368.753 23.4929 369.013 22.7122 369.534 22.1274C370.055 21.5397 370.758 21.2488 371.643 21.2488C372.428 21.2488 373.046 21.4994 373.498 22.0007C373.95 22.5019 374.175 23.1847 374.179 24.046V24.4954H369.387C369.396 25.3366 369.61 25.9761 370.027 26.4169C370.444 26.8577 371.044 27.0795 371.825 27.0795C372.205 27.0795 372.537 27.0536 372.826 27.0075C373.115 26.9585 373.479 26.8548 373.918 26.6935V27.2005C373.545 27.3503 373.196 27.454 372.879 27.5087C372.563 27.5634 372.211 27.5894 371.828 27.5894V27.5836ZM371.646 21.7414C371.006 21.7414 370.491 21.9373 370.105 22.3233C369.719 22.7122 369.494 23.2711 369.428 23.9999H373.538C373.538 23.2913 373.372 22.7381 373.036 22.3377C372.704 21.9402 372.239 21.7385 371.646 21.7385V21.7414Z" fill="white"/>
<path d="M371.825 27.7737C370.805 27.7737 369.992 27.477 369.415 26.8922C368.844 26.3132 368.552 25.4979 368.552 24.4695C368.552 23.4554 368.831 22.6287 369.38 22.0093C369.942 21.3813 370.704 21.0615 371.649 21.0615C372.493 21.0615 373.171 21.3381 373.664 21.8825C374.147 22.4155 374.388 23.1443 374.392 24.046V24.6855H369.606C369.644 25.3827 369.838 25.9243 370.19 26.293C370.569 26.6934 371.106 26.8893 371.828 26.8893C372.179 26.8865 372.518 26.8663 372.794 26.8202C373.067 26.7741 373.422 26.6704 373.846 26.5148L374.128 26.4111V27.3215L374.006 27.3704C373.62 27.526 373.256 27.6326 372.923 27.6902C372.587 27.7478 372.22 27.7737 371.831 27.7737H371.828H371.825ZM371.646 21.4389C370.817 21.4389 370.18 21.7039 369.694 22.2484C369.204 22.7958 368.96 23.5419 368.96 24.4695C368.96 25.4029 369.217 26.1317 369.716 26.6387C370.221 27.1486 370.908 27.3964 371.822 27.3964H371.825C372.189 27.3964 372.531 27.3704 372.841 27.3186C373.105 27.2725 373.4 27.1889 373.711 27.0708V26.9671C373.381 27.0766 373.102 27.1515 372.863 27.1918C372.562 27.2437 372.214 27.2667 371.825 27.2667H371.822C370.987 27.2667 370.331 27.0219 369.873 26.5408C369.424 26.0683 369.192 25.3798 369.183 24.4983V24.3082H373.974V24.046C373.974 23.2336 373.761 22.5855 373.34 22.1245C372.926 21.6636 372.371 21.4418 371.643 21.4418L371.646 21.4389ZM369.204 24.1929L369.223 23.9884C369.292 23.2163 369.537 22.6143 369.954 22.1994C370.381 21.7731 370.952 21.557 371.649 21.557C372.305 21.557 372.829 21.7817 373.202 22.2282C373.563 22.6604 373.748 23.2567 373.748 24.0028V24.1929H369.208H369.204ZM371.649 21.9344C371.065 21.9344 370.61 22.1072 370.259 22.4558C369.942 22.7727 369.741 23.2308 369.656 23.8155H373.328C373.3 23.2423 373.146 22.7871 372.873 22.4587C372.578 22.1072 372.176 21.9344 371.646 21.9344H371.649Z" fill="white"/>
<path d="M378.676 27.5806C377.725 27.5806 376.981 27.307 376.441 26.7539C375.902 26.2036 375.635 25.4345 375.632 24.4521C375.632 23.441 375.911 22.6545 376.47 22.0899C377.028 21.5281 377.791 21.2429 378.764 21.2429C379.338 21.2429 379.89 21.3351 380.417 21.5166L380.251 22.0121C379.677 21.8364 379.175 21.7499 378.751 21.7499C377.935 21.7499 377.317 21.9804 376.896 22.4442C376.476 22.908 376.266 23.5735 376.266 24.4406C376.266 25.2645 376.476 25.9098 376.896 26.3765C377.317 26.8432 377.904 27.0765 378.66 27.0765C379.263 27.0765 379.824 26.9757 380.342 26.7769V27.2926C379.918 27.4827 379.363 27.5806 378.673 27.5806H378.676Z" fill="white"/>
<path d="M378.676 27.7708C377.668 27.7708 376.865 27.4712 376.288 26.8835C375.716 26.2987 375.428 25.4835 375.428 24.455C375.428 23.4007 375.726 22.5624 376.319 21.966C376.918 21.364 377.74 21.0586 378.767 21.0586H378.773C379.366 21.0586 379.946 21.1565 380.493 21.3467L380.675 21.41L380.389 22.2599L380.188 22.1994C379.639 22.0323 379.159 21.9459 378.754 21.9459C377.995 21.9459 377.442 22.1504 377.06 22.571C376.674 22.9945 376.479 23.6254 376.479 24.4464C376.479 25.2213 376.677 25.832 377.063 26.2613C377.445 26.6848 377.97 26.8922 378.666 26.8922C379.24 26.8922 379.78 26.7942 380.27 26.607L380.555 26.4975V27.4165L380.442 27.4683C379.99 27.67 379.4 27.7737 378.682 27.7737L378.676 27.7708ZM378.77 21.436H378.763C377.847 21.436 377.144 21.6924 376.62 22.2195C376.099 22.7438 375.836 23.4957 375.836 24.455C375.836 25.3855 376.09 26.1201 376.592 26.63C377.094 27.1428 377.775 27.3934 378.672 27.3934C379.266 27.3934 379.755 27.3185 380.135 27.1716V27.0506C379.673 27.1918 379.178 27.2638 378.66 27.2638C377.844 27.2638 377.198 27.0045 376.739 26.4975C376.291 25.9991 376.062 25.3077 376.062 24.4435C376.062 23.5332 376.288 22.8188 376.739 22.3261C377.198 21.822 377.875 21.5656 378.751 21.5656C379.146 21.5656 379.604 21.6376 380.113 21.7788L380.16 21.6405C379.714 21.5051 379.247 21.436 378.767 21.436H378.77Z" fill="white"/>
<path d="M382.497 21.3611V25.3164C382.497 25.93 382.638 26.3765 382.921 26.656C383.203 26.9354 383.639 27.0737 384.229 27.0737C385.02 27.0737 385.604 26.8893 385.974 26.5234C386.347 26.1576 386.536 25.5584 386.533 24.7316V21.3611H387.132V27.4655H386.62L386.511 26.6214H386.473C386.043 27.258 385.274 27.5778 384.166 27.5778C382.654 27.5778 381.895 26.8346 381.895 25.3481V21.3611H382.494H382.497Z" fill="white"/>
<path d="M384.166 27.768C383.354 27.768 382.732 27.5605 382.315 27.1515C381.901 26.7453 381.69 26.1403 381.69 25.351V21.1739H382.701V25.3164C382.701 25.8782 382.826 26.2844 383.071 26.5263C383.31 26.7626 383.702 26.8836 384.229 26.8836C384.957 26.8836 385.494 26.7165 385.823 26.3909C386.159 26.0625 386.328 25.5037 386.328 24.7287V21.1681H387.339V27.6527H386.438L386.36 27.0622C385.867 27.5317 385.133 27.768 384.166 27.768ZM382.102 21.5512V25.351C382.102 26.0424 382.274 26.5609 382.616 26.8951C382.952 27.2235 383.473 27.3935 384.166 27.3935C385.205 27.3935 385.902 27.1111 386.297 26.5263L386.357 26.437H386.655L386.714 26.6041L386.802 27.2811H386.928V21.5541H386.74V24.7345C386.74 25.6074 386.536 26.2555 386.124 26.656C385.713 27.0622 385.076 27.2667 384.229 27.2667C383.58 27.2667 383.09 27.1054 382.767 26.7885C382.45 26.4745 382.29 25.979 382.29 25.3193V21.5541H382.102V21.5512Z" fill="white"/>
<path d="M391.977 21.2401C392.26 21.2401 392.561 21.266 392.884 21.3179L392.768 21.8508C392.489 21.7875 392.203 21.7558 391.905 21.7558C391.337 21.7558 390.873 21.9776 390.509 22.4184C390.145 22.8591 389.966 23.418 389.966 24.0921V27.4626H389.363V21.3582H389.875L389.938 22.4587H389.981C390.254 22.0093 390.546 21.6953 390.857 21.5138C391.168 21.3323 391.541 21.2401 391.984 21.2401H391.977Z" fill="white"/>
<path d="M390.173 27.6528H389.156V21.1681H390.069L390.11 21.9171C390.311 21.6694 390.521 21.4821 390.741 21.3525C391.29 21.0298 392.037 20.9895 392.919 21.1307L393.126 21.1652L392.925 22.0842L392.715 22.0352C392.454 21.9747 392.181 21.9459 391.902 21.9459C391.4 21.9459 390.995 22.1389 390.672 22.5336C390.339 22.9398 390.17 23.4641 390.17 24.0921V27.6528H390.173ZM389.57 27.2754H389.765V24.095C389.765 23.3806 389.96 22.7785 390.349 22.306C390.75 21.8163 391.278 21.5686 391.908 21.5686C392.147 21.5686 392.382 21.5887 392.608 21.6262L392.639 21.4735C391.955 21.3871 391.381 21.4274 390.964 21.6723C390.684 21.8365 390.411 22.1303 390.157 22.5509L390.098 22.6488H389.781L389.727 22.4702L389.677 21.5484H389.564V27.2754H389.57Z" fill="white"/>
<path d="M396.926 27.575C395.959 27.575 395.206 27.3013 394.663 26.754C394.124 26.2066 393.854 25.4404 393.851 24.4551C393.851 23.4814 394.111 22.7007 394.632 22.1159C395.153 21.5283 395.856 21.2373 396.741 21.2373C397.525 21.2373 398.143 21.4879 398.595 21.9892C399.047 22.4904 399.273 23.1732 399.276 24.0345V24.4839H394.484C394.494 25.3251 394.707 25.9647 395.125 26.4054C395.542 26.8462 396.141 27.068 396.923 27.068C397.302 27.068 397.635 27.0421 397.924 26.9931C398.212 26.9441 398.576 26.8404 399.016 26.6791V27.1861C398.642 27.3359 398.294 27.4396 397.977 27.4915C397.66 27.5462 397.309 27.575 396.926 27.575ZM396.744 21.7328C396.104 21.7328 395.589 21.9258 395.203 22.3147C394.817 22.7036 394.591 23.2625 394.525 23.9913H398.636C398.636 23.2827 398.47 22.7295 398.134 22.3291C397.801 21.9316 397.337 21.7328 396.744 21.7328Z" fill="white"/>
<path d="M396.926 27.7622C395.903 27.7622 395.09 27.4655 394.51 26.8807C393.935 26.3017 393.647 25.4864 393.644 24.4551C393.644 23.441 393.923 22.6143 394.472 21.9949C395.034 21.364 395.796 21.0471 396.741 21.0471H396.744C397.588 21.0471 398.263 21.3237 398.755 21.8681C399.239 22.4011 399.48 23.1299 399.483 24.0316V24.6711H394.698C394.736 25.3683 394.93 25.9099 395.282 26.2786C395.661 26.679 396.198 26.8749 396.923 26.8749C397.284 26.8749 397.607 26.8519 397.886 26.8029C398.159 26.7568 398.514 26.656 398.937 26.4976L399.22 26.3938V27.3013L399.097 27.3503C398.708 27.5058 398.344 27.6124 398.012 27.67C397.679 27.7276 397.312 27.7565 396.923 27.7565L396.926 27.7622ZM396.747 21.4274C395.922 21.4274 395.282 21.6924 394.795 22.2369C394.306 22.7842 394.058 23.5304 394.058 24.4551C394.058 25.3885 394.315 26.1173 394.817 26.6272C395.322 27.1371 396.013 27.3848 396.926 27.3848C397.29 27.3848 397.632 27.3589 397.94 27.3071C398.206 27.261 398.498 27.1803 398.812 27.0622V26.9585C398.479 27.0708 398.203 27.1429 397.965 27.1832C397.663 27.235 397.315 27.261 396.929 27.261C396.091 27.261 395.432 27.0161 394.977 26.535C394.528 26.0597 394.296 25.374 394.287 24.4925V24.3024H399.079V24.0402C399.079 23.2279 398.865 22.5797 398.445 22.1159C398.031 21.655 397.475 21.4331 396.75 21.4331L396.747 21.4274ZM394.299 24.1814L394.318 23.9769C394.387 23.2077 394.635 22.6056 395.049 22.1879C395.476 21.7616 396.047 21.5455 396.744 21.5455C397.4 21.5455 397.924 21.7702 398.297 22.2167C398.658 22.646 398.843 23.2452 398.843 23.9913V24.1814H394.303H394.299ZM396.744 21.9229C396.157 21.9229 395.705 22.0928 395.354 22.4443C395.037 22.7612 394.836 23.2192 394.751 23.804H398.423C398.395 23.2307 398.241 22.7756 397.968 22.4472C397.673 22.0957 397.271 21.9229 396.741 21.9229H396.744Z" fill="white"/>
<path d="M400.993 27.0219C400.993 26.656 401.156 26.4717 401.483 26.4717C401.815 26.4717 401.985 26.656 401.985 27.0219C401.985 27.3878 401.818 27.5721 401.483 27.5721C401.156 27.5721 400.993 27.3878 400.993 27.0219Z" fill="white"/>
<path d="M401.486 27.7622C401.275 27.7622 400.789 27.6902 400.789 27.0219C400.789 26.7683 400.858 26.5753 400.996 26.4486C401.115 26.3391 401.282 26.2815 401.483 26.2815C401.768 26.2815 401.928 26.391 402.016 26.486C402.132 26.6128 402.189 26.7914 402.189 27.019C402.189 27.6873 401.693 27.7593 401.483 27.7593L401.486 27.7622ZM401.486 26.6618C401.351 26.6618 401.304 26.705 401.291 26.7165C401.235 26.7683 401.203 26.8749 401.203 27.0219C401.203 27.3848 401.373 27.3848 401.486 27.3848C401.636 27.3848 401.781 27.356 401.781 27.0219C401.781 26.8865 401.752 26.7856 401.702 26.7309C401.687 26.7136 401.639 26.6618 401.486 26.6618Z" fill="white"/>
<path d="M357.638 29.197H357.961V3.31321H357.638V29.197Z" fill="white"/>
<path d="M358.168 3.12305H357.434V29.3842H358.168V3.12305Z" fill="white"/>
</svg>
