<svg width="41" height="52" viewBox="0 0 41 52" fill="none" xmlns="http://www.w3.org/2000/svg">
<path d="M34.3398 20H32.7863V13.9999C32.7863 10.8173 31.4771 7.76511 29.1466 5.51469C26.8162 3.26427 23.6555 2 20.3597 2C17.064 2 13.9033 3.26427 11.5728 5.51469C9.24239 7.76511 7.93317 10.8173 7.93317 13.9999V20H6.37963C5.14422 20.0015 3.95986 20.4761 3.08629 21.3197C2.21273 22.1633 1.72128 23.307 1.71973 24.5V45.5001C1.72128 46.6931 2.21273 47.8368 3.08629 48.6803C3.95986 49.5239 5.14422 49.9985 6.37963 50H34.3391C35.5746 49.9985 36.7589 49.5239 37.6325 48.6803C38.5061 47.8368 38.9975 46.6931 38.9991 45.5001V24.5C38.9975 23.3071 38.5061 22.1635 37.6327 21.3199C36.7593 20.4764 35.5751 20.0017 34.3398 20ZM12.0755 13.9999C12.0755 11.8782 12.9483 9.84345 14.5019 8.34319C16.0555 6.84293 18.1626 6.00008 20.3597 6.00008C22.5569 6.00008 24.664 6.84293 26.2176 8.34319C27.7712 9.84345 28.644 11.8782 28.644 13.9999V20H12.0761L12.0755 13.9999Z" stroke="#020421" stroke-width="3"/>
<path d="M23.8811 39.8895C23.8967 40.0293 23.8824 40.1708 23.8392 40.3047C23.796 40.4386 23.7248 40.562 23.6303 40.6668C23.5358 40.7716 23.4201 40.8555 23.2907 40.9129C23.1614 40.9703 23.0213 41 22.8796 41H18.8494C18.7077 41 18.5676 40.9703 18.4382 40.9129C18.3089 40.8555 18.1931 40.7716 18.0986 40.6668C18.0041 40.562 17.9329 40.4386 17.8897 40.3047C17.8465 40.1708 17.8323 40.0293 17.8479 39.8895L18.4822 34.2169C17.9699 33.8489 17.5532 33.3653 17.2665 32.8059C16.9797 32.2466 16.8312 31.6276 16.833 31C16.833 29.9391 17.2576 28.9217 18.0134 28.1716C18.7692 27.4214 19.7943 27 20.8632 27C21.9321 27 22.9572 27.4214 23.713 28.1716C24.4688 28.9217 24.8934 29.9391 24.8934 31C24.8953 31.6276 24.7467 32.2466 24.46 32.806C24.1732 33.3653 23.7566 33.8489 23.2443 34.2169L23.8811 39.8895Z" fill="#020421"/>
</svg>
