<svg width="68" height="68" viewBox="0 0 68 68" fill="none" xmlns="http://www.w3.org/2000/svg">
<path d="M66.367 1H1.88379V49.7639H66.367V1Z" stroke="#020421" stroke-width="2" stroke-linecap="round" stroke-linejoin="round"/>
<path d="M25.742 12.735H9.12598V29.2265H25.742V12.735Z" stroke="#020421" stroke-width="2" stroke-linecap="round" stroke-linejoin="round"/>
<path d="M20.5937 18.6665C20.5935 19.2865 20.4082 19.8925 20.0611 20.408C19.7139 20.9234 19.2206 21.3251 18.6434 21.5622C18.0663 21.7994 17.4312 21.8614 16.8186 21.7405C16.206 21.6195 15.6432 21.3209 15.2015 20.8825C14.7598 20.4441 14.459 19.8856 14.3371 19.2775C14.2152 18.6695 14.2777 18.0392 14.5167 17.4664C14.7557 16.8936 15.1604 16.404 15.6797 16.0594C16.199 15.7149 16.8096 15.5309 17.4343 15.5308C18.2722 15.5308 19.0758 15.8611 19.6683 16.4492C20.2608 17.0373 20.5937 17.8349 20.5937 18.6665Z" stroke="#020421" stroke-width="2" stroke-linecap="round" stroke-linejoin="round"/>
<path d="M11.502 29.2265C11.502 27.6651 12.1269 26.1677 13.2393 25.0636C14.3517 23.9596 15.8604 23.3393 17.4336 23.3393C19.0067 23.3393 20.5155 23.9596 21.6279 25.0636C22.7402 26.1677 23.3652 27.6651 23.3652 29.2265" stroke="#020421" stroke-width="2" stroke-linecap="round" stroke-linejoin="round"/>
<path d="M34.1248 66.3172C49.8387 58.5623 48.9762 37.6495 48.9762 37.6495C39.4271 36.7766 34.1248 33.2112 34.1248 33.2112C34.1248 33.2112 28.8232 36.7766 19.2741 37.6495C19.2741 37.6495 18.4117 58.5623 34.1248 66.3172Z" fill="#ECEEEA" stroke="#020421" stroke-width="2" stroke-linecap="round" stroke-linejoin="round"/>
<path d="M39.165 45.9559H29.085V55.9612H39.165V45.9559Z" fill="#ECEEEA" stroke="#020421" stroke-width="2" stroke-linecap="round" stroke-linejoin="round"/>
<path d="M34.1238 39.6118C33.2761 39.6118 32.4632 39.946 31.8638 40.5409C31.2645 41.1358 30.9277 41.9426 30.9277 42.7839V45.956H37.3206V42.7839C37.3206 42.3673 37.2378 41.9547 37.0772 41.5698C36.9165 41.1849 36.681 40.8352 36.3842 40.5406C36.0873 40.2461 35.7349 40.0124 35.3471 39.8531C34.9592 39.6937 34.5435 39.6117 34.1238 39.6118Z" stroke="#020421" stroke-width="2" stroke-linecap="round" stroke-linejoin="round"/>
<path d="M34.125 50.0234V51.8945" stroke="#020421" stroke-width="2" stroke-linecap="round" stroke-linejoin="round"/>
<path d="M35.917 12.735H59.6108" stroke="#020421" stroke-width="2" stroke-linecap="round" stroke-linejoin="round"/>
<path d="M35.917 19.1054H59.6108" stroke="#020421" stroke-width="2" stroke-linecap="round" stroke-linejoin="round"/>
<path d="M35.917 25.4758H59.6108" stroke="#020421" stroke-width="2" stroke-linecap="round" stroke-linejoin="round"/>
<path d="M1.88379 5.84851H66.367" stroke="#020421" stroke-width="2" stroke-linecap="round" stroke-linejoin="round"/>
</svg>
